HIERARCHY
ROOT hip
{
  OFFSET 0 0 0
  CHANNELS 6 Xposition Yposition Zposition Zrotation Yrotation Xrotation
  JOINT abdomen
  {
    OFFSET 0 20.6881 -0.73152
    CHANNELS 3 Zrotation Xrotation Yrotation
    JOINT chest
    {
      OFFSET 0 11.7043 -0.48768
      CHANNELS 3 Zrotation Xrotation Yrotation
      JOINT neck
      {
        OFFSET 0 22.1894 -2.19456
        CHANNELS 3 Zrotation Xrotation Yrotation
        JOINT head
        {
          OFFSET -0.24384 7.07133 1.2192
          CHANNELS 3 Zrotation Xrotation Yrotation
          JOINT leftEye
          {
            OFFSET 4.14528 8.04674 8.04672
            CHANNELS 3 Zrotation Xrotation Yrotation
            End Site
            {
              OFFSET 1 0 0
            }
          }
          JOINT rightEye
          {
            OFFSET -3.6576 8.04674 8.04672
            CHANNELS 3 Zrotation Xrotation Yrotation
            End Site
            {
              OFFSET 1 0 0
            }
          }
        }
      }
      JOINT rCollar
      {
        OFFSET -2.68224 19.2634 -4.8768
        CHANNELS 3 Zrotation Xrotation Yrotation
        JOINT rShldr
        {
          OFFSET -8.77824 -1.95073 1.46304
          CHANNELS 3 Zrotation Xrotation Yrotation
          JOINT rForeArm
          {
            OFFSET -28.1742 -1.7115 0.48768
            CHANNELS 3 Zrotation Xrotation Yrotation
            JOINT rHand
            {
              OFFSET -22.5879 0.773209 7.07136
              CHANNELS 3 Zrotation Xrotation Yrotation
              JOINT rThumb1
              {
                OFFSET -1.2192 -0.487915 3.41376
                CHANNELS 3 Zrotation Xrotation Yrotation
                JOINT rThumb2
                {
                  OFFSET -3.37035 -0.52449 3.41376
                  CHANNELS 3 Zrotation Xrotation Yrotation
                  End Site
                  {
                    OFFSET -1.78271 -1.18214 1.43049
                  }
                }
              }
              JOINT rIndex1
              {
                OFFSET -7.75947 0.938293 5.60832
                CHANNELS 3 Zrotation Xrotation Yrotation
                JOINT rIndex2
                {
                  OFFSET -2.54057 -0.884171 1.56538
                  CHANNELS 3 Zrotation Xrotation Yrotation
                  End Site
                  {
                    OFFSET -1.62519 -0.234802 1.16502
                  }
                }
              }
              JOINT rMid1
              {
                OFFSET -8.24714 1.18213 3.41376
                CHANNELS 3 Zrotation Xrotation Yrotation
                JOINT rMid2
                {
                  OFFSET -3.10165 -0.590103 1.0647
                  CHANNELS 3 Zrotation Xrotation Yrotation
                  End Site
                  {
                    OFFSET -2.48547 -0.328903 0.83742
                  }
                }
              }
              JOINT rRing1
              {
                OFFSET -8.82822 0.546677 1.51678
                CHANNELS 3 Zrotation Xrotation Yrotation
                JOINT rRing2
                {
                  OFFSET -2.60934 -0.819778 -0.0198488
                  CHANNELS 3 Zrotation Xrotation Yrotation
                  End Site
                  {
                    OFFSET -2.33842 -0.294052 0.168128
                  }
                }
              }
              JOINT rPinky1
              {
                OFFSET -8.27202 -0.0477905 -0.4584
                CHANNELS 3 Zrotation Xrotation Yrotation
                JOINT rPinky2
                {
                  OFFSET -1.82734 -0.647385 -0.700984
                  CHANNELS 3 Zrotation Xrotation Yrotation
                  End Site
                  {
                    OFFSET -1.69225 -0.51767 -0.607171
                  }
                }
              }
            }
          }
        }
      }
      JOINT lCollar
      {
        OFFSET 2.68224 19.2634 -4.8768
        CHANNELS 3 Zrotation Xrotation Yrotation
        JOINT lShldr
        {
          OFFSET 8.77824 -1.95073 1.46304
          CHANNELS 3 Zrotation Xrotation Yrotation
          JOINT lForeArm
          {
            OFFSET 28.1742 -1.7115 0.48768
            CHANNELS 3 Zrotation Xrotation Yrotation
            JOINT lHand
            {
              OFFSET 22.5879 0.773209 7.07136
              CHANNELS 3 Zrotation Xrotation Yrotation
              JOINT lThumb1
              {
                OFFSET 1.2192 -0.487915 3.41376
                CHANNELS 3 Zrotation Xrotation Yrotation
                JOINT lThumb2
                {
                  OFFSET 3.37035 -0.52449 3.41376
                  CHANNELS 3 Zrotation Xrotation Yrotation
                  End Site
                  {
                    OFFSET 1.78271 -1.18214 1.43049
                  }
                }
              }
              JOINT lIndex1
              {
                OFFSET 7.75947 0.938293 5.60832
                CHANNELS 3 Zrotation Xrotation Yrotation
                JOINT lIndex2
                {
                  OFFSET 2.54057 -0.884171 1.56538
                  CHANNELS 3 Zrotation Xrotation Yrotation
                  End Site
                  {
                    OFFSET 1.62519 -0.234802 1.16502
                  }
                }
              }
              JOINT lMid1
              {
                OFFSET 8.24714 1.18213 3.41376
                CHANNELS 3 Zrotation Xrotation Yrotation
                JOINT lMid2
                {
                  OFFSET 3.10165 -0.590103 1.0647
                  CHANNELS 3 Zrotation Xrotation Yrotation
                  End Site
                  {
                    OFFSET 2.48547 -0.328903 0.83742
                  }
                }
              }
              JOINT lRing1
              {
                OFFSET 8.82822 0.546677 1.51678
                CHANNELS 3 Zrotation Xrotation Yrotation
                JOINT lRing2
                {
                  OFFSET 2.60934 -0.819778 -0.0198488
                  CHANNELS 3 Zrotation Xrotation Yrotation
                  End Site
                  {
                    OFFSET 2.33842 -0.294052 0.168128
                  }
                }
              }
              JOINT lPinky1
              {
                OFFSET 8.27202 -0.0477905 -0.4584
                CHANNELS 3 Zrotation Xrotation Yrotation
                JOINT lPinky2
                {
                  OFFSET 1.82734 -0.647385 -0.700984
                  CHANNELS 3 Zrotation Xrotation Yrotation
                  End Site
                  {
                    OFFSET 1.69225 -0.51767 -0.607171
                  }
                }
              }
            }
          }
        }
      }
    }
  }
  JOINT rButtock
  {
    OFFSET -8.77824 4.35084 1.2192
    CHANNELS 3 Zrotation Xrotation Yrotation
    JOINT rThigh
    {
      OFFSET 0 -1.70687 -2.19456
      CHANNELS 3 Zrotation Xrotation Yrotation
      JOINT rShin
      {
        OFFSET 0 -36.8199 0.73152
        CHANNELS 3 Zrotation Xrotation Yrotation
        JOINT rFoot
        {
          OFFSET 0.73152 -45.1104 -5.12064
          CHANNELS 3 Zrotation Xrotation Yrotation
          End Site
          {
            OFFSET -1.1221 -3.69964 12.103
          }
        }
      }
    }
  }
  JOINT lButtock
  {
    OFFSET 8.77824 4.35084 1.2192
    CHANNELS 3 Zrotation Xrotation Yrotation
    JOINT lThigh
    {
      OFFSET 0 -1.70687 -2.19456
      CHANNELS 3 Zrotation Xrotation Yrotation
      JOINT lShin
      {
        OFFSET 0 -36.8199 0.73152
        CHANNELS 3 Zrotation Xrotation Yrotation
        JOINT lFoot
        {
          OFFSET -0.73152 -45.1104 -5.12064
          CHANNELS 3 Zrotation Xrotation Yrotation
          End Site
          {
            OFFSET 1.1221 -3.69964 12.103
          }
        }
      }
    }
  }
}
MOTION
Frames:	7
Frame Time:	0.03333
0.0 0.0 0.0 0.0 0.0 0.0 0.0 0.0 0.0 0.0 0.0 0.0 0.0 0.0 0.0 0.0 0.0 0.0 0.0 0.0 0.0 0.0 0.0 0.0 0.0 0.0 0.0 0.0 0.0 0.0 0.0 0.0 0.0 0.0 0.0 0.0 0.0 0.0 0.0 0.0 0.0 0.0 0.0 0.0 0.0 0.0 0.0 0.0 0.0 0.0 0.0 0.0 0.0 0.0 0.0 0.0 0.0 0.0 0.0 0.0 0.0 0.0 0.0 0.0 0.0 0.0 0.0 0.0 0.0 0.0 0.0 0.0 0.0 0.0 0.0 0.0 0.0 0.0 0.0 0.0 0.0 0.0 0.0 0.0 0.0 0.0 0.0 0.0 0.0 0.0 0.0 0.0 0.0 0.0 0.0 0.0 0.0 0.0 0.0 0.0 0.0 0.0 0.0 0.0 0.0 0.0 0.0 0.0 0.0 0.0 0.0 0.0 0.0 0.0 0.0 0.0 0.0 0.0 0.0 0.0 0.0 0.0 0.0 0.0 0.0 0.0 0.0 0.0 0.0 0.0 0.0 0.0
-0.4715 75.875 -0.0725 67.82876 70.426738 62.264009 -7.350759 37.614208 176.962574 3.465943 8.571583 -156.447781 -7.445939 29.741992 -117.085533 39.758033 22.612793 140.033434 -0.000398 0.0 -0.000904 -0.000398 0.0 -0.000904 -156.741587 -12.481815 163.653334 144.305254 50.92561 -160.418429 -10.012537 66.440175 122.713668 -7.065506 26.823378 1.351167 -30.156625 24.690204 11.091569 -139.492566 -39.101711 101.528828 33.885683 -54.738832 -2.32594 7.222253 13.948361 -0.657144 -3.007237 8.317284 1.812281 -12.36252 34.969028 9.859201 -0.761629 -15.082411 -4.874938 -127.014802 -84.076364 -150.303814 14.547137 50.479537 11.672758 15.81578 47.761287 8.465859 -2.316813 -16.90209 3.422997 -62.824372 31.574834 6.742844 -18.317203 -38.432093 -117.356257 13.584802 3.272981 1.798276 70.950008 38.230823 -37.396019 -2.839311 -13.211509 -23.322147 -43.805733 -62.937665 -3.323648 -76.486109 -60.739025 -22.182034 -174.472108 -64.983855 -138.586734 174.394048 -36.431937 -143.343374 145.121924 0.796604 179.378633 146.289588 -48.156515 168.589315 -9.918068 32.267538 -8.588214 5.833873 -17.771374 7.003737 179.999667 75.750435 8.4e-05 145.954552 37.895597 137.002406 55.308476 -24.689554 -104.532529 -131.778951 -1.942701 23.039485 -0.001363 0.000658 -0.001696 141.358111 -33.614027 -120.294877 131.590016 -8.212212 -92.190227 -126.158431 -36.229089 0.34255
-0.7229 75.0326 -0.22759999999999997 67.417355 71.435985 61.936622 -8.266347 42.350129 2.896545 -4.42574 -13.028689 17.394203 11.783578 22.717297 94.721573 -37.423733 16.195581 -58.705264 -0.004323 0.0 -0.003196 0.000395 0.0 0.000646 -157.230054 -16.636082 164.447477 149.807173 36.811666 -161.009584 167.299712 -36.670261 23.12433 169.77019 -13.389932 144.95385 175.556979 -21.545963 88.421344 -174.034792 -10.555617 98.737386 165.58232 -67.723936 107.019014 32.037412 -30.138506 -7.710632 -149.113226 22.732895 135.751948 7.039019 -11.132168 -0.78586 -134.300623 51.602089 157.840968 6.849631 4.870157 -6.447549 0.761523 2.020235 0.699812 -95.996596 -51.58303 -95.285418 151.832969 15.33481 -157.206944 81.235387 56.783687 -43.953309 -148.813597 -70.160964 -1.423687 164.75455 17.821034 -137.790591 -29.520892 -27.760736 -2.932075 1.23181 -82.845099 56.69498 -14.767925 -26.504441 5.636777 168.952541 -28.229522 -109.406797 158.968569 -1.508305 -142.386921 177.417478 -43.558253 -142.1344 145.121166 0.967704 179.431624 -11.722485 25.933544 6.040612 -2.692168 7.481026 -2.457521 147.197598 10.73369 143.457695 179.999159 75.749161 0.000578 147.109943 36.817149 173.231492 44.206287 -65.524371 18.115808 88.37004 27.142662 174.330488 -0.000503 -0.000951 -0.000633 138.464998 -38.469406 -162.359001 131.350147 21.818843 -124.377374 32.542808 5.92817 2.121081
-0.9603999999999999 74.2435 -0.3958 66.974893 72.51945 61.678379 -7.197957 37.600187 -153.82879 8.307685 5.610642 173.465156 11.725045 23.917876 100.330025 -37.525516 18.814373 -62.567172 0.003103 -0.0 -0.001229 0.003103 -0.0 -0.001229 2.436339 -17.995494 -3.627943 54.084095 -4.833878 10.473964 111.586363 43.221959 19.276984 -123.739949 74.146454 104.092741 -5.014068 4.867188 0.977864 -139.995922 -44.785341 116.592724 -16.894117 21.953836 11.598135 5.300226 5.143648 0.002982 -8.120526 20.273483 5.420178 -163.97878 -7.169706 143.572505 -145.12296 1.20817 -179.507011 -150.415816 -35.200968 -173.003252 -6.897987 -15.248305 -6.489518 7.074669 13.116307 3.47065 158.149582 -26.017386 -166.182117 37.970298 -5.493088 14.810565 7.060884 -46.99051 153.972441 172.348561 -3.380222 -142.857477 162.533676 -0.222605 -89.301347 164.660404 -6.944901 -82.98829 -62.216306 -71.040717 -17.138682 -178.726576 -47.837886 -106.137718 162.397109 -12.086157 -143.986605 19.450455 43.383138 -15.854319 145.122006 0.887661 179.407775 149.438261 -38.891345 171.957987 138.38909 -6.351966 135.609596 5.334089 -17.089359 8.594128 -0.009224 -0.000523 -0.007219 -28.451282 -29.486783 -46.453638 -33.856553 53.766994 61.334629 -53.454972 17.760338 -19.084631 -179.986796 75.748698 -0.009503 -135.329212 -41.840862 32.207503 172.076661 47.831244 87.284323 -1.025211 37.316181 95.519136
-1.2669 73.5208 -0.666 66.028813 73.775467 60.849451 -8.894127 41.668869 6.212719 -5.081637 -12.763548 13.759208 11.145895 26.880166 116.369799 -35.341794 27.909975 -75.31273 -0.003784 0.0 -0.002237 0.000966 0.0 0.001578 -3.772589 -78.132711 -23.570964 -121.609055 -27.230484 -148.499634 -160.92367 -61.04848 -56.361164 -5.436228 22.870668 1.076776 -158.651551 3.568849 88.592801 -178.379126 -17.249481 86.899197 -13.350811 18.240627 8.90071 178.942489 -35.535853 106.119793 7.247395 -22.705826 -2.883483 -162.811303 -3.100108 143.151974 -145.106441 3.745972 179.691829 10.765502 63.501395 -0.594982 -132.629072 -17.859552 -130.139934 1.420414 -3.6381 -2.983143 150.432241 20.622515 -155.576694 50.945626 21.339118 -24.720084 -163.345816 30.509676 52.93227 17.244401 13.832774 -0.717063 4.424218 4.304026 -0.841172 130.39984 -28.99833 -113.620667 -5.12273 -8.741924 2.615156 10.474652 27.518432 -9.291393 161.384187 -8.883942 -143.568294 152.708263 22.61518 -137.515982 145.007798 -5.130036 177.510866 0.608932 -52.59845 21.794237 150.005678 28.872054 145.914805 -22.924891 59.876562 -5.852301 179.998261 75.748495 -0.000148 149.924399 36.525152 -93.450315 -74.245755 -9.659852 -121.311817 108.781144 26.878073 169.303741 0.000458 -0.000554 1.7e-05 133.412891 -46.816092 -135.264119 134.72875 -3.955267 113.12596 49.465774 -0.386308 166.058516
-1.4992999999999999 72.6967 -0.9834 64.606803 75.117053 60.292069 -7.150852 40.809258 -23.390941 0.409455 -13.859552 42.663734 -9.146118 19.463678 -49.661768 33.460506 -14.405302 88.437028 0.003167 -0.0 -0.003358 0.003167 -0.0 -0.003358 4.205067 -43.269424 -8.349211 52.33054 14.047425 -7.695463 127.301172 23.47051 10.932831 -161.122697 56.64537 137.072413 18.509942 -18.236823 0.132084 -150.3422 -73.651759 137.169933 11.242214 -19.970026 -4.866746 164.101228 -50.990927 95.463458 -175.598071 -49.978268 144.161334 174.003342 -57.299921 137.49467 -145.11323 -0.281813 -179.039229 -152.477391 -24.261413 -175.489205 12.877444 43.906094 10.690694 -175.679303 78.617726 -142.347063 132.55516 52.75039 -136.489481 105.453791 39.511361 -82.600001 119.113564 78.087645 121.282822 6.275723 -19.625697 5.001996 150.762903 10.85092 -86.428025 119.823283 2.688747 -57.42402 23.080776 27.444938 -16.520456 25.255095 35.844959 -15.82919 0.18443 0.536083 -0.104312 0.231076 9.818977 -1.576273 -0.003929 1.140099 -0.358962 -10.809362 -9.346394 1.196609 121.88306 -32.32557 119.727039 15.089104 -31.874754 17.64823 179.999711 75.749856 0.001844 148.209728 34.987695 134.401789 66.604918 -38.514969 -1.361358 -18.138441 19.767648 -111.60516 0.054128 -8.9e-05 0.039586 129.795523 -49.682315 -67.882117 159.708274 -55.077004 -89.358983 -18.558325 -45.957462 66.771643
-1.6539000000000001 71.9507 -1.3833 63.307602 76.312717 59.481703 -6.505335 39.770219 -29.39153 1.296945 -13.684793 48.065078 11.120829 24.059646 98.712955 -37.943091 15.685053 -59.275348 0.005487 -0.0 -0.001162 -0.001044 -0.0 0.002522 -149.721013 23.026612 154.766081 140.095025 -49.331573 167.250899 -8.588092 -13.316715 109.465358 -3.963791 18.995079 0.936767 -172.368232 -10.047201 89.937109 -132.126586 11.906866 65.311125 -161.097479 -34.879983 122.706852 -139.176695 23.192205 112.657676 -144.000416 31.532223 131.625129 -6.902836 25.287018 6.087502 0.001667 0.304058 0.096202 9.280122 12.029309 1.562224 -130.343068 -21.595617 -127.94117 -0.323061 -7.804099 -4.420352 -2.478489 -67.594997 15.222899 121.840553 -23.760477 141.618712 178.774489 0.655456 64.546503 10.491879 -3.954984 3.162254 -11.238915 -11.218799 0.634561 -0.972508 -6.704871 8.919264 164.692854 -40.760517 -122.435748 148.258384 6.394874 -117.274795 138.833418 38.414301 -127.202396 86.140803 63.9153 -78.126742 0.000592 0.061225 -0.019341 -9.227386 12.742161 -1.667559 158.901487 62.661419 150.960207 170.046316 69.335262 144.785023 0.00299 0.000225 0.003017 -28.872247 -32.20452 -26.216226 -19.461043 72.278253 -83.720964 34.077734 34.131343 70.720012 -0.005348 -0.001294 -0.002917 122.660719 -55.024724 170.446699 126.379983 19.906906 13.564798 -79.626931 -35.04865 172.398665
